<svg xmlns="http://www.w3.org/2000/svg" viewBox="0 0 64 64" width="64" height="64">
  <defs>
    <linearGradient id="bg" x1="0" y1="0" x2="1" y2="1">
      <stop offset="0%" stop-color="#a8376e"/>
      <stop offset="100%" stop-color="#5b1546"/>
    </linearGradient>
    <linearGradient id="liquid" x1="0" y1="0" x2="0" y2="1">
      <stop offset="0%" stop-color="#fff" stop-opacity=".95"/>
      <stop offset="100%" stop-color="#fbcfe8"/>
    </linearGradient>
  </defs>
  <circle cx="32" cy="32" r="32" fill="url(#bg)"/>
  <!-- Frasco -->
  <path d="M26 16h12v8l8 18a6 6 0 0 1-5.5 8.4H23.5A6 6 0 0 1 18 42l8-18z"
        fill="url(#liquid)" stroke="#fff" stroke-width="1.5"/>
  <!-- Topo / rolha -->
  <rect x="24" y="13" width="16" height="4" rx="1.2" fill="#fff"/>
  <!-- Bolha de líquido -->
  <circle cx="30" cy="42" r="2" fill="#a8376e" opacity=".55"/>
  <circle cx="36" cy="46" r="1.4" fill="#a8376e" opacity=".4"/>
  <!-- Escudo (regulatório) -->
  <path d="M44 30 l6 2.5 v6 c0 4-3 7-6 8.5 c-3-1.5-6-4.5-6-8.5 v-6 z"
        fill="#a8376e" stroke="#fff" stroke-width="1.5" stroke-linejoin="round"/>
  <path d="M41 38.5 l2.2 2.2 4-4.5" fill="none" stroke="#fff" stroke-width="1.6" stroke-linecap="round" stroke-linejoin="round"/>
</svg>
